<svg id="Layer_1" xmlns="http://www.w3.org/2000/svg" viewBox="0 0 1600 338.9" width="2500" height="530"><style>.st0{fill:#17844e}.st1{fill:#2e3690}.st2{fill:#fff}</style><path class="st0" d="M46.3 337.6c-20-6.3-35.2-20.7-43.3-41.1-.5-1.1-1.3-3.5-1.9-5.4C.3 288.7 0 251.5 0 169.4V51.1l2.9-7.8c4.3-11.5 7.7-17 15.6-24.8 7.8-7.9 13.3-11.3 24.8-15.6L51.1 0h748.8c534.5 0 749.8.3 752.2 1.1 12.5 4 20.8 8.9 29.4 17.4 6.5 6.4 8.9 9.7 12.2 16.5 2.3 4.7 4.6 10.3 5.2 12.5.8 2.8 1.1 39.9 1.1 122.5-.1 116.3-.1 118.6-2.1 124-1.1 3-2.3 6.4-2.6 7.5-3.2 10.1-22.7 29.6-32.8 32.8-1.1.3-4.5 1.5-7.5 2.6-5.5 2-6.1 2-755 2-612 0-750.3-.3-753.7-1.3zm1501.2-20.1c14.9-3.9 27.1-16.1 31-31 2.3-8.8 2.3-225.1 0-233.9-3.9-14.9-16.3-27.2-31.5-31.2-8.2-2.1-1485.8-2.1-1494 0-15.3 4-27.5 16.3-31.5 31.6-2.2 8.7-2.2 224.3 0 233 3.9 15 16 27.5 30.7 31.4 4.6 1.3 107.1 1.5 747.3 1.5 663.5.1 742.7-.1 748-1.4z" id="layer1"/><g id="layer2"><path class="st1" d="M1002.6 242.8c.4-10.6.8-19.4.9-19.6.1-.1 5.5-1.3 12.1-2.7 52.2-10.9 69.8-16.8 94.9-31.8 17.5-10.4 32.4-21.4 73-54 12.1-9.7 22.6-17.7 23.4-17.7 1.1 0 1.3 1.2.7 6.1-.3 3.4-.6 14.3-.6 24.1v17.9l-8.2 8c-13 12.6-35.5 29.1-58.8 43.1-32.1 19.3-68.2 32.2-117.5 41.8-8.8 1.7-17 3.3-18.3 3.6l-2.2.4.6-19.2zM1304.2 260.2c.2-.5 5.7-5.6 12.3-11.4 29.8-26.3 52-51.9 71-82.1 17.4-27.8 25-46.8 20.3-51.5-.9-.9-18.6-1.2-73.5-1.2H1262V90.4l95.4.4 95.4.5 1.6-5.2c2.8-9.3 8.7-15.7 18.4-19.7 24.3-10 49.7 15.4 38.9 38.8-3.2 7.1-6.6 10.9-12.5 14.1-10.7 5.8-22.9 5.5-32.5-1-2.8-1.9-5.3-3-5.7-2.6-.3.4-1.4 3.5-2.4 6.8-3.7 12.3-22.1 47.8-33.9 65.5-17.2 25.8-45.9 58.2-61.3 69.3l-5.2 3.7H1331c-14.9 0-27-.4-26.8-.8zm184-153.2c2-.6 5-2.6 6.7-4.6 5.6-6.4 3.7-16.5-3.9-20.4-7.3-3.7-15.3-1.7-19.7 4.9-3.1 4.5-3 9.7.2 14.4 1.4 2 2.7 3.7 2.8 3.7s2 .7 4.2 1.5c4.9 1.7 5.1 1.7 9.7.5zM752 175.8V91.3l19.3-.5c10.5-.3 21.6-.3 24.5 0l5.3.5-.7 62.3-.7 62.3 2.7.7c6.7 1.6 33.3-5.2 55.8-14.4 10.4-4.3 36.7-19.3 69.3-39.6 11.5-7.2 21.3-13.2 21.7-13.4.5-.2.8 7.5.8 17.1v17.4l-16.7 11c-46.6 30.8-81.3 46.7-123.8 56.8-12.4 3-36.9 6.9-49.2 8l-8.3.7v-84.4zM164 228.5c0-16.6-.4-29.5-.9-29.5s-8.6 10.6-18.1 23.5c-9.5 12.9-17.7 23.5-18.1 23.5-.5 0-.9-10.7-.9-23.7v-23.7l12.3-18.6c17.2-25.8 24.7-39.6 24.7-45.6V132h-37v-24h38V74h34v34h35.1l-.3 11.3-.3 11.2-15.9.3-15.9.3.6 3.9c1.1 8.2 13.8 28.2 27.1 42.7l6.6 7.1v18.1c0 10-.3 18.1-.8 18.1-.4 0-8.1-7.4-17.2-16.5S200.2 188 199.8 188c-.5 0-.8 15.8-.8 35v35h-35v-29.5zM308.7 240c-.4-10.1-.8-24.7-.8-32.4-.2-23.1 1.2-23-17.4-.5-8.8 10.6-20 23.6-25 28.8l-9 9.4-.6-7.4c-.4-4.1-.7-13.1-.8-20l-.1-12.7 19.8-26.3c20.3-27.2 27.8-38.5 28.8-43.9l.7-3h-44.4l.3-11.7.3-11.8 25.8-.3 25.7-.2V74h34v34h46v8.4c0 4.6-.3 9.7-.6 11.5l-.6 3.1-18.7.2-18.6.3.2 3.3c.2 4.6 7.6 19.9 15.2 31.2 6.4 9.6 19.2 25.4 21.7 26.8 1 .6 1.2 5.6.7 26-.6 25.6-1.1 28-4.2 23-3-4.8-35.5-49.4-37.8-51.8l-2.3-2.5V257h-11.3c-6.3 0-14.8.3-18.9.6l-7.5.7-.6-18.3zM498 256.3c0-.5 6.8-8.9 15.1-18.8 24.6-29.5 39.9-54.1 40.7-65.6.7-9.4 3.2-8.9-49-8.9H460v-21h212v21h-55.8l-2.9 2.4c-3.2 2.7-6.5 9.5-11.8 24.1-7.7 21.2-20.4 41.5-36 57.3L555.4 257h-28.7c-15.8 0-28.7-.3-28.7-.7zM1002 102.5V89h102v27h-102v-13.5zM478.8 101.2l-.3-9.9 38.9-.6c21.4-.4 61.8-.7 89.8-.7H658v21H479.1l-.3-9.8z"/></g><g id="layer3"><path class="st2" d="M52.2 317.4C37.5 313.5 25.4 301 21.5 286c-2.2-8.7-2.2-224.3 0-233 4-15.3 16.2-27.6 31.5-31.6 8.2-2.1 1485.8-2.1 1494 0 15.2 4 27.6 16.3 31.5 31.2 2.3 8.8 2.3 225.1 0 233.9-3.9 14.9-16.1 27.1-31 31-5.3 1.3-84.5 1.5-748 1.4-640.2 0-742.7-.2-747.3-1.5zm970.3-59.4c49.3-9.6 85.4-22.5 117.5-41.8 23.3-14 45.8-30.5 58.8-43.1l8.2-8v-17.9c0-9.8.3-20.7.6-24.1.6-4.9.4-6.1-.7-6.1-.8 0-11.3 8-23.4 17.7-40.6 32.6-55.5 43.6-73 54-25.1 15-42.7 20.9-94.9 31.8-6.6 1.4-12 2.6-12.1 2.7-.1.2-.5 9-.9 19.6l-.6 19.2 2.2-.4c1.3-.3 9.5-1.9 18.3-3.6zm340.9-.7c15.4-11.1 44.1-43.5 61.3-69.3 11.8-17.7 30.2-53.2 33.9-65.5 1-3.3 2.1-6.4 2.4-6.8.4-.4 2.9.7 5.7 2.6 9.6 6.5 21.8 6.8 32.5 1 14.9-8.1 19.6-27.6 9.9-41.8-7.9-11.7-23.3-16.4-36.3-11.1-9.7 4-15.6 10.4-18.4 19.7l-1.6 5.2-95.4-.5-95.4-.4V114h72.3c54.9 0 72.6.3 73.5 1.2 4.7 4.7-2.9 23.7-20.3 51.5-19 30.2-41.2 55.8-71 82.1-6.6 5.8-12.1 10.9-12.3 11.4-.2.4 11.9.8 26.8.8h27.2l5.2-3.7zm-579.9-.8c53.2-8.3 94.5-25.3 149.8-61.8l16.7-11v-17.4c0-9.6-.3-17.3-.8-17.1-.4.2-10.2 6.2-21.7 13.4-32.6 20.3-58.9 35.3-69.3 39.6-22.5 9.2-49.1 16-55.8 14.4l-2.7-.7.7-62.3.7-62.3-5.3-.5c-2.9-.3-14-.3-24.5 0l-19.3.5v168.9l8.3-.7c4.5-.4 15-1.8 23.2-3zM199 223c0-19.2.3-35 .8-35 .4 0 8.1 7.4 17.2 16.5s16.8 16.5 17.2 16.5c.5 0 .8-8.1.8-18.1v-18.1l-6.6-7.1c-13.3-14.5-26-34.5-27.1-42.7l-.6-3.9 15.9-.3 15.9-.3.3-11.2.3-11.3H198V74h-34v34h-38v24h37v2.4c0 6-7.5 19.8-24.7 45.6L126 198.6v23.7c0 13 .4 23.7.9 23.7.4 0 8.6-10.6 18.1-23.5 9.5-12.9 17.6-23.5 18.1-23.5s.9 12.9.9 29.5V258h35v-35zm136.7 34H347v-69.5l2.3 2.5c2.3 2.4 34.8 47 37.8 51.8 3.1 5 3.6 2.6 4.2-23 .5-20.4.3-25.4-.7-26-2.5-1.4-15.3-17.2-21.7-26.8-7.6-11.3-15-26.6-15.2-31.2l-.2-3.3 18.6-.3 18.7-.2.6-3.1c.3-1.8.6-6.9.6-11.5V108h-46V74h-34v34l-25.7.2-25.8.3-.3 11.8-.3 11.7h44.4l-.7 3c-1 5.4-8.5 16.7-28.8 43.9L255 205.2l.1 12.7c.1 6.9.4 15.9.8 20l.6 7.4 9-9.4c5-5.2 16.2-18.2 25-28.8 18.6-22.5 17.2-22.6 17.4.5 0 7.7.4 22.3.8 32.4l.6 18.3 7.5-.7c4.1-.3 12.6-.6 18.9-.6zm229.8-10.2c15.6-15.8 28.3-36.1 36-57.3 5.3-14.6 8.6-21.4 11.8-24.1l2.9-2.4H672v-21H460v21h44.8c52.2 0 49.7-.5 49 8.9-.8 11.5-16.1 36.1-40.7 65.6-8.3 9.9-15.1 18.3-15.1 18.8 0 .4 12.9.7 28.7.7h28.7l10.1-10.2zM1104 102.5V89h-102v27h102v-13.5zm-446-2V90h-50.8c-28 0-68.4.3-89.8.7l-38.9.6.3 9.9.3 9.8H658v-10.5z"/><path class="st2" d="M1478.5 106.5c-2.2-.8-4.1-1.5-4.2-1.5s-1.4-1.7-2.8-3.7c-3.2-4.7-3.3-9.9-.2-14.4 4.4-6.6 12.4-8.6 19.7-4.9 4.8 2.4 7 6.4 7 12.4 0 3.6-.6 5.2-3.1 8-1.7 2-4.7 4-6.7 4.6-4.6 1.2-4.8 1.2-9.7-.5z"/></g></svg>