<svg height="210mm" viewBox=".05 -.02 296.95 210.014" width="297mm" xmlns="http://www.w3.org/2000/svg"><path d="m.05-.02h296.95v210.014h-296.95z" fill="#fff"/><g fill="#4f7942"><path d="m51.392 37.428c-17.878 3.842-33.032 15.155-41.538 31.006-1.055 1.984-1.92 3.736-1.942 3.904 0 .17 8.443.317 18.743.317h18.763l1.056-3.271c6.67-20.495 10.405-32.124 10.405-32.335 0-.444-2.511-.254-5.487.38zm18.995-.379c0 .232 4.116 13.022 10.406 32.335l1.055 3.271h18.806c17.73 0 18.785-.042 18.51-.739-4.137-10.848-16.547-23.576-28.726-29.443-7.323-3.546-20.05-6.986-20.05-5.424zm-66.991 50.697c-1.9 11.144.548 26.34 5.973 37 3.926 7.746 12.811 18.827 13.571 16.927 3.166-7.873 10.975-33.855 10.363-34.446-.654-.633-27.945-20.557-29.063-21.212-.338-.19-.612.36-.844 1.731zm105.616 8.379c-7.894 5.72-14.669 10.701-15.049 11.081-.612.612 7.198 26.594 10.363 34.467.296.739.676.464 3.462-2.533 8.063-8.674 13.107-18.426 15.64-30.182.865-3.947 1.076-19.756.316-22.077l-.4-1.161zm-60.048 43.691c-7.957 5.825-14.373 10.722-14.268 10.912 1.794 2.891 19.102 7.197 28.937 7.197s27.143-4.306 28.937-7.197c.17-.275-28.557-21.55-29-21.487-.084.021-6.649 4.77-14.606 10.575z"/><path d="m277.581 1.634-.416 13.262c-5.245 0-8.846 1.765-11.587 4.458-2.694 2.694-5.292 7.797-7.797 15.358l-2.22 6.946c-5.01 15.31-13.138 25.376-24.526 30.196 10.538 2.032 18.902 6.333 25.14 12.948 6.237 6.569 9.356 14.413 9.356 23.439 0 12.664-4.773 23.107-14.271 31.377-9.499 8.27-21.549 12.38-36.103 12.38-22.163 0-39.269-9.498-51.366-28.494l10.632-9.026c7.845 8.411 15.925 12.617 24.242 12.617 6.805 0 12.665-2.221 17.579-6.71 4.867-4.489 7.325-9.83 7.325-16.02 0-5.15-1.938-9.64-5.766-13.42-3.827-3.78-8.316-5.67-13.467-5.67-9.31 0-22.4 6.615-39.174 19.8l-8.46 6.662c-27.407 21.596-53.539 32.37-78.49 32.37-21.595 0-39.883-7.088-54.862-21.312-14.98-14.224-22.493-31.52-22.493-51.933 0-20.698 7.75-37.379 23.249-50.137 15.5-12.712 35.866-19.091 61.053-19.091h4.584v13.704c-14.933.992-26.794 6.19-35.583 15.594-8.742 9.356-13.137 21.5-13.137 36.48 0 14.744 5.529 27.408 16.586 37.852 11.105 10.49 24.479 15.736 40.167 15.736 15.121 0 28.59-4.632 40.403-13.847 11.814-9.214 17.72-19.752 17.72-31.566 0-5.623-1.842-10.396-5.48-14.27-3.64-3.875-8.129-5.813-13.468-5.813-5.388 0-9.404 1.465-12.145 4.348-2.694 2.93-4.064 7.324-4.064 13.231 0 3.591.992 7.844 3.024 12.759l-12.428 5.67c-5.529-13.09-8.317-24.1-8.317-32.936 0-10.916 3.544-20.225 10.585-28.022 7.042-7.797 15.594-11.72 25.518-11.72 6.38 0 12.192 1.56 17.484 4.726 5.246 3.119 9.924 7.844 14.082 14.224 5.388-13.374 13.846-22.777 25.423-28.117 11.578-5.34 29.157-8.033 52.69-8.033zm-99.66 67.574c13.562-2.6 25.942-13.893 37.189-33.93l2.363-4.016c4.914-8.647 10.82-14.318 17.72-17.011-35.252 0-54.343 18.334-57.273 54.957z" style="stroke:#1f1a17;stroke-width:.076;clip-rule:evenodd;fill-rule:evenodd;image-rendering:optimizeQuality;shape-rendering:geometricPrecision;text-rendering:geometricPrecision" transform="matrix(.1869 -.2007 .19876 .18871 23.616 114.702)"/></g><g fill="#6c4279" stroke-width="1.055"><path d="m146.899 44.216q.506 0 1.52.085 1.012.042 2.236.21 1.224.17 2.49.465 1.309.253 2.322.675 1.055.422 1.73.971.675.549.675 1.308 0 .507-.38.845-.337.337-.844.337-.59 0-1.435-.464-.844-.464-1.983-1.013-1.14-.59-2.575-1.055-1.393-.464-3.123-.464-.76 0-1.773.126-1.013.085-2.068.253-1.055.17-2.026.465-.97.253-1.646.548-1.097.507-2.194 1.562-1.056 1.055-1.9 2.364-.844 1.308-1.392 2.743-.55 1.393-.55 2.617 0 1.603.676 2.785.718 1.14 1.815 1.857 1.097.718 2.49 1.055 1.393.338 2.786.338 1.772 0 3.165-.422 1.435-.422 2.575-1.055 1.14-.633 2.026-1.393.928-.76 1.646-1.393.717-.633 1.308-1.055.59-.422 1.097-.422.465 0 .844.253.423.211.634.633 0 .591-.211 1.056-.17.464-.465.928-.253.422-.59.844-.338.422-.592.887-.464.844-.633 1.857-.126.97-.548 1.857-1.266 2.616-2.997 4.22-1.688 1.562-3.798 2.448-2.068.844-4.516 1.14-2.406.295-5.065.295-1.266 0-2.828-.21-1.561-.17-2.954-.718-1.35-.591-2.322-1.604-.928-1.013-.928-2.66 0-.801.253-1.56.253-.803.718-1.394.506-.633 1.181-1.013.718-.38 1.604-.38.507 0 1.055.296.549.296.549.886 0 .591-.422.887-.422.253-.97.464-.507.211-.93.549-.421.295-.421.97 0 .254.084.422.127.127.253.338.718.97 1.478 1.562.801.548 1.688.844.886.253 1.941.337 1.055.043 2.322.043 2.447 0 4.727-.465 2.32-.464 4.178-1.561 1.857-1.14 3.165-2.997 1.309-1.9 1.73-4.685-.675.676-1.73 1.224-1.055.507-2.321.887-1.266.38-2.701.59-1.393.17-2.786.17-1.646 0-3.334-.465-1.688-.506-3.081-1.435-1.35-.97-2.237-2.363-.886-1.435-.886-3.335 0-3.08 1.308-5.486 1.35-2.406 3.503-4.052 2.153-1.646 4.854-2.49 2.743-.887 5.529-.887zm2.828-7.554q.464.126 1.013.717.548.591 1.012 1.35.507.718.802 1.478.338.717.338 1.14 0 .337-.253.548-.253.211-.549.211-.802 0-1.477-.844-.675-.886-1.097-1.9-.422.465-.929.971-.464.465-.97.845-.465.38-.887.633-.38.21-.633.21-.464 0-.76-.253-.295-.253-.295-.717 0-.338.548-1.055.591-.76 1.351-1.477.802-.76 1.562-1.309.802-.548 1.224-.548zm16.671 14.983q3.714 0 5.698 1.772 2.025 1.73 2.025 5.53 0 1.519-.38 2.405-.337.886-1.054 1.393-.676.464-1.689.59-1.013.127-2.363.127-2.533 0-5.192.042h-5.149q-.506 0-.76.211-.21.17-.337.465-.084.295-.084.675v.717q0 1.14.506 2.069.507.886 1.35 1.561.845.633 1.9 1.013 1.055.338 2.195.338 1.181 0 2.068-.38.928-.38 1.604-.844.717-.465 1.266-.844.548-.38 1.055-.38 1.182 0 1.182 1.182 0 .801-.971 1.519-.97.675-2.28 1.182-1.265.506-2.574.802-1.266.253-1.899.253-1.477 0-2.912-.591-1.393-.59-2.49-1.604-1.098-1.055-1.773-2.406-.675-1.392-.675-2.996 0-2.448.717-4.896.76-2.49 2.195-4.474 1.477-1.983 3.672-3.207 2.237-1.224 5.149-1.224zm-8.146 9.032q0 .21.127.337.169.127.38.211.21.042.422.042h.422q1.899 0 3.925-.042 2.068-.084 3.967-.084.76 0 1.52-.042.802-.043 1.435-.254.633-.253 1.013-.717.38-.507.38-1.435 0-2.153-1.52-3.25-1.52-1.14-3.672-1.14-1.393 0-2.532.17-1.14.168-2.068.632-.929.423-1.689 1.182-.76.76-1.435 1.942-.21.38-.464 1.181-.21.802-.21 1.267zm28.721-9.454q.591 0 1.097.38.55.337.55.97 0 .38-.254.844-.253.464-.97.38-1.436-.084-2.829.338-1.35.38-2.194.717-.211.085-.718 1.098-.464.97-1.055 2.447-.59 1.435-1.266 3.166-.633 1.73-1.182 3.376-.549 1.604-.928 2.955-.38 1.308-.465 1.899-.042.59.211.59.296 0 .718-.252.464-.254.928-.549.507-.295.845-.295.464 0 .97.295.549.295.549.844 0 .549-.507 1.013-.464.464-1.181.802-.676.338-1.393.549-.718.168-1.14.168-.464 0-.928-.168-.464-.211-.886-.55-.423-.337-.676-.759-.253-.464-.253-.928 0-.676.338-1.9.38-1.266.928-2.785.549-1.52 1.14-3.208.633-1.688 1.181-3.207.55-1.562.887-2.828.38-1.266.38-1.942 0-.337-.296-.506-.253-.169-.59-.296-.338-.126-.634-.295-.253-.211-.253-.59 0-.972.717-1.31.718-.38 1.562-.38.633 0 .97.17.338.126.55.295.253.169.464.338.253.126.633.126.464 0 .844-.126.38-.169.886-.338.507-.21 1.224-.38.76-.168 2.026-.168zm8.691-.085q.675 0 .928.296.253.253.338.59.126.296.169.55.084.252.464.252.422 0 .844-.168l.928-.465q.55-.253 1.267-.422.76-.21 1.857-.21 1.055 0 1.646.252.633.211 1.013.55.422.337.675.801.295.422.633.844.422-.422 1.013-.886.633-.464 1.393-.887.802-.422 1.73-.675.97-.295 2.11-.295 2.068 0 3.292.844 1.224.844 1.224 3.039 0 .97-.337 2.194-.296 1.224-.76 2.617-.464 1.35-1.013 2.743-.506 1.393-.97 2.66-.465 1.266-.803 2.32-.295 1.056-.295 1.731 0 .127.084.422.085.296.296.296.464 0 .97-.338.507-.38.971-.38.633 0 1.182.127.549.084.549.802 0 .506-.507.97-.506.465-1.181.845-.676.337-1.393.548-.718.211-1.14.211-.464 0-.928-.21-.465-.212-.844-.55-.38-.38-.634-.844-.21-.464-.21-.928 0-.76.337-1.9.338-1.139.802-2.49.506-1.35 1.097-2.785.591-1.477 1.056-2.828.506-1.393.844-2.574.337-1.224.337-2.026 0-.76-.38-1.52-.337-.802-1.266-.802-1.815 0-3.08.845-1.267.801-2.449 2.152-.506.59-1.013 1.9-.506 1.308-1.013 2.996-.506 1.688-1.013 3.545-.464 1.815-.928 3.377-.422 1.561-.802 2.7-.38 1.098-.633 1.351-.253.211-.506.338-.212.127-.55.127-.59 0-.928-.254-.337-.253-.337-.886 0-1.14.675-3.08.675-1.985 1.477-4.306.844-2.321 1.52-4.727.675-2.448.675-4.432 0-.38-.211-.633-.211-.295-.549-.422-.295-.169-.675-.253-.38-.084-.675-.084-1.942 0-3.335 1.435-1.35 1.392-2.363 3.545-1.013 2.11-1.73 4.6-.718 2.49-1.351 4.643-.633 2.11-1.309 3.545-.675 1.393-1.561 1.393-.422 0-.718-.38-.253-.422-.253-.802 0-.76.338-1.983.38-1.267.928-2.786.591-1.52 1.224-3.208.633-1.73 1.182-3.376.59-1.646.928-3.123.38-1.52.38-2.66 0-.337-.295-.463-.296-.127-.675-.212-.338-.126-.633-.295-.296-.169-.296-.633 0-.507.338-.844.337-.38.802-.591.506-.211 1.055-.295.548-.085.97-.085zm35.329-.084q2.152 0 3.503.76 1.35.76 2.11 2.025.802 1.224 1.055 2.87.296 1.604.296 3.335 0 2.532-.844 4.895-.844 2.364-2.28 4.179-1.434 1.815-3.376 2.912-1.899 1.055-4.094 1.055-4.01 0-5.993-2.237-1.941-2.237-1.941-6.077 0-2.533.886-4.98.886-2.49 2.448-4.39 1.561-1.942 3.672-3.123 2.11-1.224 4.558-1.224zm-8.652 14.434q0 .886.337 1.815.38.886 1.013 1.646.633.76 1.562 1.224.97.464 2.195.464 2.026 0 3.545-1.182 1.52-1.181 2.532-2.954 1.013-1.773 1.52-3.799.506-2.025.506-3.714 0-.886-.295-1.857-.296-.97-.887-1.772-.548-.802-1.35-1.309-.76-.506-1.773-.506-2.068.042-3.714 1.055t-2.828 2.701q-1.14 1.688-1.772 3.84-.591 2.111-.591 4.348zm-87.006 32.076q-.591.211-1.182.76-.549.549-1.013 1.393-.464.844-.76 2.026-.295 1.14-.295 2.616 0 1.604.506 3.166.549 1.52 1.604 2.743 1.097 1.224 2.743 1.984 1.689.717 4.01.717 2.363 0 3.798-.633 1.478-.633 2.322-1.603.886-.971 1.266-2.069.422-1.14.717-2.11.296-.97.633-1.604.38-.633 1.098-.633.844 0 .97.591.17.549.17 1.182 0 1.857-1.014 3.503-1.013 1.604-2.616 2.828-1.562 1.181-3.461 1.899-1.857.717-3.546.717-2.152 0-4.22-.506-2.068-.549-3.714-1.73-1.604-1.182-2.617-3.081-.97-1.9-.97-4.643 0-2.026.295-3.419.337-1.435.928-2.49.633-1.097 1.52-1.941.928-.844 2.11-1.689-.127-.168-.169-.717-.042-.549.042-1.266.085-.718.296-1.477.21-.76.59-1.351.676-1.055 1.689-1.941 1.055-.887 2.279-1.52t2.532-.97q1.351-.338 2.575-.338 1.308 0 2.659.38 1.393.38 2.617 1.055 1.224.633 2.237 1.604 1.055.928 1.646 2.068 0 .464-.338.928-.338.422-.844.422-.211 0-.97-.675-.718-.675-1.858-1.477-1.14-.844-2.575-1.52-1.435-.717-3.038-.717-1.182 0-2.533.464-1.308.464-2.405 1.308-1.098.802-1.773 1.984-.675 1.14-.549 2.49.465-.253 1.098-.422.633-.169 1.266-.253.675-.084 1.266-.127.633-.042 1.097-.042.802 0 1.815.211t1.9.676q.886.464 1.477 1.181.633.718.633 1.73 0 1.351-.549 2.195-.506.802-1.35 1.267-.802.464-1.858.633-1.055.126-2.11.126-.97 0-2.026-.422-1.013-.464-1.899-1.055-.886-.633-1.52-1.266-.59-.675-.632-1.14zm1.941-1.097q.127.802.844 1.35.718.55 1.604.887.928.338 1.815.506.928.127 1.435.127.675 0 1.308-.59.633-.592.633-1.267 0-.718-.464-1.097-.464-.422-1.14-.591-.633-.211-1.35-.211-.676-.043-1.182-.043-.253 0-.675.043-.422.042-.929.168-.506.085-1.013.254-.506.169-.886.464zm26.44-2.447q.59 0 1.941.168 1.35.169 2.701.549 1.393.38 2.448 1.012 1.056.591 1.056 1.435 0 .465-.38.845-.338.337-.802.337-.465 0-1.098-.295-.59-.338-1.392-.718-.76-.38-1.773-.675-1.013-.338-2.28-.338-.632 0-1.519.17-.844.126-1.646.463-.76.338-1.35.887-.549.548-.549 1.35 0 .718.296 1.14.295.422.76.717.464.254 1.097.422.633.127 1.35.254 1.224.21 2.533.633 1.35.422 2.448 1.14 1.097.717 1.814 1.814.718 1.055.718 2.617 0 2.026-.844 3.46-.844 1.394-2.237 2.28-1.35.886-3.081 1.308-1.688.422-3.419.422-1.646 0-3.165-.38-1.477-.38-2.575-1.181-1.097-.844-1.772-2.11-.633-1.309-.633-3.166 0-.844.337-1.604.338-.76 1.35-.76.718 0 .971.338.296.338.338.802.085.464 0 1.013-.084.506-.084.929 0 1.097.38 1.857.422.717 1.097 1.181.717.422 1.562.633.886.211 1.857.211.97 0 2.236-.168 1.309-.211 2.448-.718 1.182-.506 1.984-1.35.802-.887.802-2.195 0-1.309-.422-2.11-.422-.845-1.182-1.351t-1.815-.76q-1.013-.253-2.237-.422-.717-.084-1.688-.337-.97-.296-1.857-.802-.886-.507-1.52-1.267-.59-.76-.59-1.857 0-1.561.59-2.659.634-1.14 1.647-1.814 1.013-.718 2.321-1.013 1.35-.338 2.828-.338zm12.842.168q.337 0 .548.169.253.169.464.38l.423.337q.21.127.464.127.633 0 1.14-.127.548-.169 1.054-.295.55-.17 1.098-.296.549-.168 1.224-.168 2.195 0 3.672.675 1.52.675 2.363 1.983.887 1.267 1.182 3.124.338 1.815.211 4.094-.084 1.688-.886 3.672-.802 1.941-2.153 3.63-1.308 1.645-3.123 2.785-1.815 1.14-3.967 1.14-1.14 0-2.068-.127-.929-.085-1.689-.422-.717-.38-1.308-1.013-.59-.633-1.097-1.689-.085.338-.55 1.647-.463 1.308-1.054 2.87-.549 1.603-1.098 3.038-.506 1.435-.675 1.984-.21.59-.717 1.14-.465.548-1.182.548-.422 0-.633-.337-.211-.338-.211-.676 0-.337.042-.59 0-.212.042-.465.042-.21.169-.506.084-.296.295-.76.296-.507.929-2.237t1.435-4.052q.802-2.363 1.646-5.022.844-2.701 1.52-5.065.675-2.363 1.139-4.094.464-1.772.464-2.321.127-.338-.253-.507-.338-.168-.802-.337-.422-.169-.76-.422-.337-.254-.21-.76 0-.464.337-.675.338-.211.802-.296.506-.084.97-.084zm-1.224 14.181q-.211.717.126 1.52.38.801 1.013 1.477.675.633 1.52 1.055.844.422 1.561.422 1.942 0 3.461-.802 1.562-.844 2.617-2.195 1.097-1.393 1.646-3.123.59-1.73.59-3.545 0-1.055-.21-2.153-.211-1.14-.76-2.068-.507-.97-1.393-1.561-.886-.634-2.195-.634-1.519 0-2.616.465-1.055.422-1.815 1.266-.718.802-1.182 1.941-.464 1.098-.802 2.406-.21.76-.38 1.35-.126.592-.295 1.225-.169.633-.38 1.35-.211.675-.506 1.604z"/><path d="m201.926 93.85q3.715 0 5.698 1.773 2.026 1.73 2.026 5.529 0 1.52-.38 2.406-.337.886-1.055 1.392-.675.465-1.688.591-1.013.127-2.364.127-2.532 0-5.19.042h-5.15q-.507 0-.76.211-.21.169-.337.464-.085.296-.085.676v.717q0 1.14.507 2.068.506.887 1.35 1.562.844.633 1.9 1.013 1.055.337 2.194.337 1.182 0 2.068-.38.929-.38 1.604-.844.718-.464 1.266-.844.549-.38 1.055-.38 1.182 0 1.182 1.182 0 .802-.97 1.52-.971.675-2.28 1.181-1.266.507-2.574.802-1.266.254-1.9.254-1.477 0-2.912-.591-1.392-.591-2.49-1.604-1.097-1.055-1.772-2.406-.676-1.393-.676-2.997 0-2.447.718-4.895.76-2.49 2.194-4.474 1.478-1.984 3.672-3.208 2.237-1.224 5.15-1.224zm-8.145 9.032q0 .211.126.338.17.127.38.21.211.043.422.043h.422q1.9 0 3.925-.042 2.069-.084 3.968-.084.76 0 1.52-.043.801-.042 1.434-.253.633-.253 1.013-.717.38-.507.38-1.435 0-2.153-1.52-3.25-1.519-1.14-3.671-1.14-1.393 0-2.533.169t-2.068.633q-.928.422-1.688 1.182-.76.76-1.435 1.941-.211.38-.464 1.182-.211.802-.211 1.266zm28.721-9.454q.59 0 1.097.38.549.338.549.97 0 .38-.254.845-.253.464-.97.38-1.435-.085-2.828.337-1.35.38-2.195.718-.21.084-.717 1.097-.464.97-1.055 2.448-.591 1.435-1.267 3.166-.633 1.73-1.181 3.376-.549 1.604-.929 2.954-.38 1.309-.464 1.9-.042.59.211.59.295 0 .717-.253.465-.253.929-.548.506-.296.844-.296.464 0 .97.296.55.295.55.844 0 .548-.507 1.013-.464.464-1.182.802-.675.337-1.393.548-.717.17-1.14.17-.463 0-.928-.17-.464-.21-.886-.548-.422-.338-.675-.76-.253-.464-.253-.929 0-.675.337-1.899.38-1.266.929-2.785.548-1.52 1.14-3.208.632-1.688 1.181-3.208.549-1.561.886-2.827.38-1.267.38-1.942 0-.338-.295-.506-.253-.17-.591-.296-.338-.126-.633-.295-.253-.211-.253-.591 0-.97.717-1.309.718-.38 1.562-.38.633 0 .97.17.338.126.55.295.252.169.463.338.254.126.633.126.465 0 .845-.126.38-.17.886-.338.506-.211 1.224-.38.76-.169 2.026-.169zm11.121.549q.886 0 1.52.21.632.17 1.181.423t1.097.549q.55.253 1.309.422.295-.085.464-.296.211-.253.38-.464.169-.253.38-.422.21-.211.548-.211.465 0 .802.38.38.38.211.802-.253.717-.633 1.899-.38 1.14-.844 2.617-.464 1.435-.97 3.08-.465 1.647-.971 3.25-.465 1.604-.887 3.124-.422 1.477-.717 2.659-.042.464.21.422.296-.085.718-.296.465-.21 1.013-.464.549-.295 1.055-.295.423 0 .718.21.338.212.338.676 0 .506-.465 1.013-.422.506-1.055.928-.633.38-1.308.633-.675.211-1.14.211-.464 0-.844-.168-.38-.17-.717-.38-.338-.211-.718-.38-.38-.169-.844-.169-.211 0-.717.211-.465.169-1.056.422-.59.253-1.224.464-.633.17-1.14.17-1.94 0-3.46-.423-1.477-.422-2.49-1.35-1.013-.929-1.562-2.448-.506-1.52-.506-3.714 0-2.533.928-4.896.971-2.406 2.617-4.263 1.646-1.9 3.883-2.997 2.28-1.14 4.896-1.14zm-9.834 12.45q0 .845.169 1.942.21 1.055.717 2.026.507.928 1.35 1.561.887.634 2.238.591 1.815-.042 3.08-.464 1.31-.422 2.66-1.646.633-.59.76-1.266.168-.675.422-1.435.38-1.182.801-2.617.422-1.477.76-2.743.38-1.309.549-2.237.21-.929.126-1.097-.126-.676-.548-1.182-.38-.549-.929-.844-.506-.338-1.14-.507-.59-.169-1.223-.169-1.857 0-3.63.887-1.73.886-3.123 2.321-1.35 1.393-2.195 3.208-.844 1.814-.844 3.672zm24.535-12.872q.591 0 1.14.21.59.17.97.676.254.211.465.464.21.211.549.211 1.181-.464 2.616-.928 1.477-.464 2.786-.464 1.688 0 2.828.548 1.181.507 1.857 1.435.675.929.97 2.237.296 1.266.296 2.744 0 .084-.253.886-.211.802-.591 1.984l-.844 2.532q-.422 1.35-.802 2.574-.38 1.182-.676 2.069-.295.844-.38 1.055-.21.802-.042.928.17.127.549 0 .422-.169.97-.422.55-.295 1.056-.295.549 0 .886.295.338.296.338.802 0 .38-.38.76-.38.337-.928.633-.55.253-1.098.422-.549.169-.886.169-.507 0-1.055-.127-.549-.127-1.013-.38-.422-.253-.718-.675-.253-.422-.253-1.055 0-1.309.549-2.912.548-1.604 1.181-3.377.634-1.772 1.182-3.587.549-1.857.549-3.63 0-.549-.169-1.14-.169-.59-.549-1.055-.337-.506-.844-.802-.464-.337-1.097-.337-1.14 0-2.406.295-1.224.253-2.321.802-1.097.549-1.942 1.435-.844.886-1.224 2.068-.801 2.575-1.688 5.15-.844 2.574-1.772 5.106-.17.464-.296 1.182-.126.717-.38 1.393-.21.675-.59 1.181-.38.507-1.013.507-.676 0-.929-.338-.211-.337-.211-.928 0-.507.38-1.815.422-1.308 1.013-2.955.59-1.688 1.266-3.545.717-1.857 1.308-3.545.591-1.688.971-2.997.422-1.35.422-1.899 0-.464-.338-.633-.337-.169-.717-.295-.38-.127-.718-.254-.337-.169-.337-.59 0-.887.802-1.309.802-.464 1.561-.464zm25.666-6.035q.464 0 .844.337.422.295.422.76 0 .337-.21.844-.17.464-.38 1.013-.212.506-.423 1.055-.169.549-.169.97 0 .718.507.887.506.127 1.097.211.591.042 1.098.211.506.169.506.886 0 .844-.633 1.055-.591.17-1.393.254-.76.042-1.52.21-.717.127-1.012.845-.169.464-.591 1.646-.38 1.182-.886 2.701-.507 1.52-1.056 3.208-.548 1.688-1.012 3.207-.423 1.478-.718 2.575-.253 1.055-.253 1.393 0 .717.675.717.211 0 .464-.126.254-.17.549-.338.338-.211.675-.338.38-.169.844-.169.38 0 .591.38.211.338.211.676 0 .506-.464.97-.464.422-1.097.76-.633.295-1.309.506-.675.17-1.097.17-1.055 0-1.773-.507-.717-.549-.717-1.73 0-1.014.295-2.406.338-1.393.844-2.955.507-1.561 1.056-3.165.548-1.646 1.055-3.123.506-1.478.802-2.702.337-1.266.337-2.068 0-.38-.337-.422-.296-.084-.718-.126-.38-.043-.717-.17-.296-.168-.296-.674 0-1.013.464-1.267.465-.295 1.056-.337.59-.085 1.14-.127.548-.042.674-.549.211-.675.38-1.688.17-1.013.422-1.688 0-.717.507-1.224.548-.549 1.266-.549z"/><path d="m286.298 93.977q.886 0 1.519.21.633.17 1.182.423.548.253 1.097.549.549.253 1.308.422.296-.085.465-.296.21-.253.38-.464.168-.253.38-.422.21-.211.548-.211.464 0 .802.38.38.38.211.802-.253.717-.633 1.899-.38 1.14-.844 2.617-.464 1.435-.97 3.08-.465 1.647-.972 3.25-.464 1.604-.886 3.124-.422 1.477-.717 2.659-.043.464.21.422.296-.085.718-.296.464-.21 1.013-.464.549-.295 1.055-.295.422 0 .718.21.337.212.337.676 0 .506-.464 1.013-.422.506-1.055.928-.633.38-1.309.633-.675.211-1.14.211-.463 0-.843-.168-.38-.17-.718-.38-.337-.211-.717-.38-.38-.169-.844-.169-.211 0-.718.211-.464.169-1.055.422-.59.253-1.224.464-.633.17-1.14.17-1.94 0-3.46-.423-1.478-.422-2.49-1.35-1.013-.929-1.562-2.448-.507-1.52-.507-3.714 0-2.533.929-4.896.97-2.406 2.617-4.263 1.646-1.9 3.883-2.997 2.279-1.14 4.896-1.14zm-9.834 12.45q0 .845.168 1.942.211 1.055.718 2.026.506.928 1.35 1.561.887.634 2.237.591 1.815-.042 3.081-.464 1.309-.422 2.66-1.646.632-.59.76-1.266.168-.675.421-1.435.38-1.182.802-2.617.422-1.477.76-2.743.38-1.309.548-2.237.211-.929.127-1.097-.127-.676-.549-1.182-.38-.549-.928-.844-.507-.338-1.14-.507-.59-.169-1.224-.169-1.857 0-3.63.887-1.73.886-3.123 2.321-1.35 1.393-2.194 3.208-.844 1.814-.844 3.672zm-129.016 22.412q2.532 0 4.473.76 1.942.76 3.25 1.983 1.35 1.224 2.026 2.786.718 1.561.718 3.123 0 2.237-.676 3.756-.633 1.477-1.772 2.617-1.098 1.14-2.575 2.068-1.477.929-3.123 1.984-.549.084-.549.633l.042.21q.591.845.887 1.942.295 1.098.506 2.11.211 1.013.422 1.731.253.675.76.675.338 0 .633-.169.295-.168.549-.38.295-.21.548-.38.254-.168.549-.168.38 0 .718.253.38.253.38.675 0 .38-.465.76-.422.38-1.013.675-.59.296-1.182.507-.59.169-.928.169-1.266 0-1.942-.591-.675-.591-1.013-1.477-.337-.887-.506-1.9-.127-1.013-.338-1.899-.21-.886-.633-1.477-.422-.59-1.35-.59-.971 0-1.477.59-.507.59-.845 1.477-.295.886-.633 1.942-.337 1.055-.928 1.941-.549.886-1.562 1.477-1.013.591-2.743.591h-.929q-.59-.042-1.181-.169-.591-.126-1.056-.38-.464-.253-.464-.675 0-.59.464-.717.507-.17.971-.17.507 0 .97.127.465.127.972.127 1.392 0 2.236-1.055.423-.549 1.013-1.9.591-1.35 1.224-3.123.633-1.772 1.267-3.756.633-2.026 1.224-3.883.59-1.899 1.055-3.46.464-1.562.76-2.449l-.127-.506q-.338-.127-.802-.127-.422-.042-.844-.126-.38-.085-.676-.296-.295-.21-.295-.76 0-.38.211-.59.253-.254.549-.38.337-.169.675-.211.38-.042.675-.042l2.448-.043q.464 0 .76.55.295.506.295.928 0 .59-.295 1.603-.253 1.013-.675 2.195-.422 1.182-.887 2.448-.464 1.266-.886 2.406-.422 1.14-.718 2.068-.253.886-.253 1.35 0 .338.211.55.254.168.591.168.675 0 1.477-.296.844-.295 1.646-.717.802-.422 1.52-.886.76-.465 1.35-.844 2.068-1.309 2.744-3.25.675-1.984.675-4.347 0-1.9-1.013-3.04-1.013-1.139-2.49-1.73-1.477-.633-3.123-.844-1.646-.21-2.912-.21-2.575 0-4.77.717-2.194.675-3.798 2.068-1.604 1.35-2.533 3.376-.886 1.984-.886 4.643 0 1.772.802 2.785.844.971 1.857 1.562 1.055.59 1.942.97.928.38 1.097.93 0 .252-.211.421-.211.17-.507.296-.295.126-.633.169-.295.042-.464.042-1.14 0-2.28-.676-1.139-.675-2.025-1.688-.886-1.055-1.477-2.279-.549-1.266-.549-2.363 0-3.461 1.393-5.91 1.393-2.447 3.63-4.009 2.237-1.561 5.064-2.279 2.87-.717 5.783-.717zm21.802 6.626q2.153 0 3.504.76 1.35.76 2.11 2.026.802 1.224 1.055 2.87.296 1.603.296 3.334 0 2.532-.844 4.896-.845 2.363-2.28 4.178-1.435 1.815-3.376 2.912-1.9 1.055-4.094 1.055-4.01 0-5.993-2.237-1.942-2.236-1.942-6.077 0-2.532.887-4.98.886-2.49 2.448-4.39 1.561-1.941 3.671-3.123 2.11-1.224 4.559-1.224zm-8.651 14.434q0 .887.337 1.815.38.887 1.013 1.646.633.76 1.562 1.224.97.464 2.194.464 2.026 0 3.546-1.181 1.52-1.182 2.532-2.955 1.013-1.772 1.52-3.798.506-2.026.506-3.714 0-.887-.296-1.857-.295-.971-.886-1.773-.549-.802-1.35-1.308-.76-.507-1.773-.507-2.068.042-3.714 1.055t-2.828 2.701q-1.14 1.689-1.773 3.841-.59 2.11-.59 4.347zm22.274-14.139q.59 0 1.14.211.59.17.97.676.253.21.464.464.211.211.549.211 1.182-.464 2.617-.928 1.477-.465 2.785-.465 1.688 0 2.828.549 1.182.506 1.857 1.435.675.928.97 2.237.296 1.266.296 2.743 0 .085-.253.887-.211.801-.591 1.983l-.844 2.533q-.422 1.35-.802 2.574-.38 1.182-.675 2.068-.296.844-.38 1.055-.211.802-.042.929.168.126.548 0 .422-.169.971-.422.549-.296 1.055-.296.549 0 .886.296.338.295.338.802 0 .38-.38.76-.38.337-.928.632-.549.254-1.098.423-.548.168-.886.168-.506 0-1.055-.126-.549-.127-1.013-.38-.422-.253-.717-.675-.254-.422-.254-1.056 0-1.308.549-2.912.549-1.604 1.182-3.376.633-1.773 1.181-3.588.55-1.857.55-3.63 0-.548-.17-1.139-.168-.59-.548-1.055-.338-.507-.844-.802-.465-.338-1.098-.338-1.14 0-2.406.296-1.223.253-2.32.802-1.098.548-1.942 1.435-.844.886-1.224 2.068-.802 2.574-1.688 5.149-.845 2.574-1.773 5.107-.169.464-.296 1.182-.126.717-.38 1.392-.21.676-.59 1.182-.38.507-1.013.507-.676 0-.929-.338-.21-.338-.21-.929 0-.506.38-1.814.421-1.309 1.012-2.955.59-1.688 1.266-3.545.718-1.857 1.309-3.545.59-1.689.97-2.997.422-1.35.422-1.9 0-.464-.337-.632-.338-.17-.718-.296-.38-.126-.717-.253-.338-.169-.338-.59 0-.887.802-1.31.802-.464 1.562-.464zm39.087-7.976q.506 0 .886.38.38.337.38.844 0 .844-.338 1.646-.337.76-.549 1.603-.295 1.267-.928 3.124-.59 1.857-1.35 4.01-.718 2.11-1.52 4.346-.76 2.237-1.393 4.263t-1.055 3.672q-.38 1.646-.38 2.617 0 .548.296.59.337.043.76-.084.421-.169.843-.38.465-.253.718-.253.38 0 .717.253.338.211.338.633 0 .55-.38 1.013-.337.465-.886.802-.507.338-1.097.507-.591.21-1.056.21-.76 0-1.224-.295-.464-.253-.717-.59-.253-.338-.38-.591-.127-.296-.253-.338-.422-.084-1.182.169t-1.646.59q-.886.338-1.773.634-.844.295-1.435.295-1.688 0-2.996-.59-1.309-.634-2.195-1.689-.886-1.055-1.35-2.448-.465-1.435-.465-3.039 0-2.87.929-5.318.97-2.49 2.617-4.262 1.646-1.815 3.798-2.828 2.195-1.013 4.685-1.013 1.308 0 2.11.295.844.254 1.393.591.549.296.886.591.38.253.76.253.59 0 .76-.464.21-.506.38-.97.084-.254.337-1.14.296-.887.591-1.9.338-1.012.591-1.814.253-.844.253-.929 0-.337-.295-.506-.296-.17-.676-.338-.38-.169-.675-.338-.295-.21-.295-.59 0-.422.422-.676.422-.253.97-.38.591-.126 1.182-.126.591-.042.887-.042zm-19.373 21.609q0 1.308.296 2.406.337 1.097 1.013 1.899.675.76 1.688 1.224 1.013.422 2.363.422 1.9-.042 3.503-1.35 1.604-1.351 2.406-3.377.338-.886.844-2.195.549-1.35 1.013-2.743.507-1.393.844-2.66.38-1.308.38-2.067 0-.676-.633-1.14-.633-.506-1.52-.844-.886-.338-1.772-.464-.886-.169-1.393-.169-1.983.084-3.63 1.224-1.645 1.097-2.87 2.743-1.181 1.646-1.856 3.546-.676 1.899-.676 3.545zm30.961-13.928q2.153 0 3.503.76 1.351.76 2.11 2.026.803 1.224 1.056 2.87.295 1.603.295 3.334 0 2.532-.844 4.896-.844 2.363-2.279 4.178t-3.376 2.912q-1.9 1.055-4.094 1.055-4.01 0-5.994-2.237-1.941-2.236-1.941-6.077 0-2.532.886-4.98.887-2.49 2.448-4.39 1.562-1.941 3.672-3.123 2.11-1.224 4.558-1.224zm-8.652 14.434q0 .887.338 1.815.38.887 1.013 1.646.633.76 1.561 1.224.971.464 2.195.464 2.026 0 3.545-1.181 1.52-1.182 2.533-2.955 1.013-1.772 1.52-3.798.506-2.026.506-3.714 0-.887-.296-1.857-.295-.971-.886-1.773-.549-.802-1.35-1.308-.76-.507-1.773-.507-2.068.042-3.714 1.055-1.647 1.013-2.828 2.701-1.14 1.689-1.773 3.841-.59 2.11-.59 4.347z"/></g><g stroke-width=".378"><path d="m135.066 169.296q0 .229.015.473.014.236.118.443v.044q-.007 0-.022.007t-.023.007h-1.13q-.007 0-.023-.007-.014-.007-.022-.007v-.044q.096-.251.126-.562.03-.31.03-.569v-6.518q0-.259-.03-.562-.03-.31-.126-.554v-.052l.045-.022q.598 0 1.175-.074.584-.074 1.182-.074.503 0 1.013.11.517.112.931.37.414.252.673.666.258.406.258.997 0 .562-.251.998-.251.436-.65.74-.4.295-.902.45-.503.155-1.013.155-.354 0-.702-.037-.34-.044-.672-.185zm0-4.272q.266.148.554.2.296.044.599.044.901 0 1.419-.48.517-.489.517-1.405 0-.421-.148-.739-.14-.325-.399-.54-.251-.221-.598-.332-.34-.111-.74-.111-.31 0-.613.06-.303.058-.591.162zm8.226-1.197q.68 0 1.278.258.606.259 1.057.71.458.443.717 1.05.266.598.266 1.278t-.266 1.286q-.259.598-.71 1.05-.45.45-1.056.709-.606.258-1.286.258t-1.286-.258q-.606-.259-1.065-.71-.45-.45-.716-1.05-.26-.598-.26-1.285 0-.688.26-1.286.266-.599.716-1.042.459-.451 1.065-.71.606-.258 1.286-.258zm0 .428q-.547 0-.976.266-.429.266-.724.68-.288.414-.444.924-.147.51-.147.998t.147.998q.156.51.444.93.288.415.717.68.428.26.983.26.547 0 .975-.267.429-.266.717-.68.296-.413.451-.923.155-.51.155-.998t-.155-.998q-.155-.51-.45-.924-.29-.414-.718-.68-.428-.266-.975-.266zm5.41 5.388q0 .31.14.57v.043q-.007 0-.022.007t-.022.007h-1.131q-.007 0-.022-.007t-.022-.007v-.044q.17-.259.17-.569v-4.39q0-.266-.037-.532-.03-.266-.133-.51v-.015l.044-.044.983-.207.037.015q.015.14.015.28v.281q.118-.088.266-.184.147-.104.303-.185.155-.089.317-.148.163-.06.318-.06.259 0 .503.097.244.089.414.28l.015.045-.015.022-.599.362h-.059q-.089-.103-.214-.177-.119-.074-.266-.074-.148 0-.281.06-.133.051-.259.132-.118.082-.23.178l-.213.184zm4.323-.717q0 .163.082.296.08.125.207.221.125.097.273.156.155.059.296.074l.037.03v.044l-.51.642-.067.023q-.569-.17-.902-.518-.325-.347-.325-.968v-4.456h-.998l-.059-.023.015-.059q.547-.362 1.027-.805.48-.444.858-.976l.044-.015.037.045.007 1.396q.23 0 .458-.007.23-.007.459-.007.08 0 .155.007.081 0 .155.023-.052.118-.163.221-.103.104-.192.185-.222.022-.45.022-.222 0-.444-.007zm5.285-5.099q.68 0 1.278.258.606.259 1.057.71.458.443.717 1.05.266.598.266 1.278t-.266 1.286q-.259.598-.71 1.05-.45.45-1.056.709-.606.258-1.286.258t-1.286-.258q-.606-.259-1.065-.71-.45-.45-.716-1.05-.26-.598-.26-1.285 0-.688.26-1.286.266-.599.716-1.042.459-.451 1.065-.71.606-.258 1.286-.258zm0 .428q-.547 0-.976.266-.429.266-.724.68-.288.414-.444.924-.147.51-.147.998t.147.998q.156.51.444.93.288.415.717.68.428.26.983.26.547 0 .975-.267.429-.266.717-.68.296-.413.451-.923.155-.51.155-.998t-.155-.998q-.155-.51-.45-.924-.29-.414-.718-.68-.428-.266-.975-.266zm8.174 6.001-.022-.014v-.045q.103-.118.214-.236.11-.126.177-.274l3.747-7.886q-.059-.11-.14-.206l-.163-.193v-.007l.023-.022h1.197l.03.022 3.34 7.716q.259.584.688 1.102l.014.044q-.007 0-.022.007t-.022.007q-.377 0-.74-.007-.361-.015-.738-.007-.015-.259-.045-.503-.03-.251-.133-.488l-2.04-4.707h-2.091l-2.284 4.892q-.059.126-.11.266-.045.133-.045.281 0 .06.007.118.007.052.022.111l-.007.03-.015.015zm5.21-6.075q-.214-.48-.458-.953-.244-.48-.377-.998l-.938 1.951zm5.854-2.926q.015 2.099.007 4.168v4.16q0 .164.022.326.03.155.11.303v.044q-.029.015-.05.015h-1.124l-.037-.015v-.044q.088-.148.125-.303.037-.155.037-.325v-7.021q0-.266-.03-.525-.029-.266-.132-.517v-.023l.037-.044.236-.052q.14-.037.288-.066.148-.037.281-.06.14-.021.23-.021zm2.328 4.774q-.104.318-.155.65-.052.333-.052.666 0 .68.192 1.19.192.502.554.842.37.333.895.503.524.162 1.182.162.444 0 .865-.133.429-.14.806-.377-.503.488-1.094.702-.584.207-1.279.207-.687 0-1.249-.229-.562-.236-.953-.65-.392-.414-.606-.983-.215-.577-.215-1.257 0-.657.252-1.286.25-.628.687-1.116.436-.495 1.027-.79.592-.303 1.279-.303.473 0 .909.155.443.155.783.443.34.288.54.695.207.406.207.909zm3.6-.377q-.03-.325-.134-.591-.103-.274-.288-.466-.177-.192-.444-.295-.258-.111-.598-.111-.348 0-.658.118-.303.11-.562.31-.25.2-.45.466t-.333.569zm1.788.458q0-.502.229-.916.236-.421.606-.724.377-.303.842-.473.466-.17.932-.17.17 0 .34.014.177.015.34.06.088.022.177.066.096.037.192.037h1.892l.037.03v.044l-.044.066q-.03.037-.067.089l-.059.089q-.03.037-.044.044h-1.05q.407.28.65.71.252.428.252.923 0 .54-.222.983-.214.444-.576.769-.362.318-.835.51-.466.192-.968.236l-1.094.09q-.133.014-.207.103-.067.088-.067.214 0 .155.17.244.17.081.451.133.281.044.636.081.362.03.731.089.37.059.725.17.362.103.643.296.28.192.45.487.17.303.17.747 0 .318-.14.606t-.377.532q-.236.244-.54.436-.302.192-.628.325-.325.14-.657.215-.326.073-.599.073-.192 0-.443-.022-.244-.015-.503-.066-.251-.045-.495-.133-.244-.082-.436-.222-.192-.133-.31-.325-.112-.192-.112-.451 0-.288.163-.45.17-.164.458-.164.052 0 .082.015v.052q-.133.126-.133.318 0 .207.096.355.103.155.258.258.163.111.37.17.207.067.414.104.214.037.414.044.2.015.354.015.333 0 .666-.089.34-.081.606-.266.273-.177.443-.458.17-.274.17-.658 0-.406-.155-.665-.148-.251-.4-.407-.25-.155-.576-.236-.318-.081-.65-.133-.333-.052-.658-.096-.318-.052-.569-.148-.251-.096-.407-.259-.147-.17-.147-.458 0-.192.051-.318.06-.125.156-.207.103-.088.236-.133.14-.051.31-.081.2-.037.4-.044.207-.015.406-.052.421-.067.784-.2.37-.133.635-.362.274-.236.429-.576.155-.34.155-.813 0-.422-.096-.776-.089-.362-.296-.621-.2-.259-.524-.407-.318-.147-.777-.147-.362 0-.694.155-.325.148-.577.399-.244.251-.391.584-.148.332-.148.687 0 .259.022.466.03.2.089.377.066.177.177.34.118.162.296.347.074.074.125.148.06.074.096.17l-.059.015q-.354-.074-.65-.222-.288-.155-.503-.377-.207-.23-.325-.525-.118-.303-.118-.68zm7.516 3.533q0 .31.14.57v.043q-.006 0-.022.007-.014.007-.022.007h-1.13q-.008 0-.023-.007t-.022-.007v-.044q.17-.259.17-.569v-4.39q0-.266-.037-.532-.03-.266-.133-.51v-.015l.044-.044.983-.207.037.015q.015.14.015.28v.281q.118-.088.266-.184.148-.104.303-.185.155-.089.318-.148.163-.06.318-.06.258 0 .502.097.244.089.414.28l.015.045-.015.022-.598.362h-.06q-.088-.103-.214-.177-.118-.074-.266-.074-.148 0-.28.06-.134.051-.26.132-.118.082-.229.178-.11.096-.214.184zm3.74-3.614q-.104.318-.155.65-.052.333-.052.666 0 .68.192 1.19.192.502.554.842.37.333.895.503.524.162 1.182.162.444 0 .865-.133.429-.14.806-.377-.503.488-1.094.702-.584.207-1.279.207-.687 0-1.249-.229-.562-.236-.953-.65-.392-.414-.606-.983-.215-.577-.215-1.257 0-.657.252-1.286.25-.628.687-1.116.436-.495 1.027-.79.592-.303 1.279-.303.473 0 .909.155.443.155.783.443.34.288.54.695.207.406.207.909zm3.6-.377q-.03-.325-.134-.591-.103-.274-.288-.466-.177-.192-.444-.295-.258-.111-.598-.111-.348 0-.658.118-.303.11-.562.31-.25.2-.45.466t-.333.569zm1.958 3.925.03-.03 1.197-.237.051.015.007.052q-.03.103-.118.31-.081.2-.2.451-.118.251-.266.518-.14.266-.28.495-.14.229-.266.384t-.215.185q-.088-.045-.17-.111-.074-.06-.14-.133.103-.177.2-.318.095-.14.162-.288.074-.14.11-.303.045-.163.045-.384 0-.148-.037-.296-.03-.155-.11-.281zm6.511-8.204q.347 0 .687-.037.348-.037.688-.082.347-.051.687-.088.347-.037.695-.037.37 0 .739.096.377.096.68.303.303.2.488.51.192.303.192.724 0 .392-.185.747-.177.354-.466.635-.288.281-.65.473-.362.185-.724.23.561.044 1.05.228.494.185.856.51.363.318.57.784.206.458.206 1.064 0 .562-.236 1.08-.237.51-.628.9-.392.393-.91.63-.51.228-1.07.228h-2.669l-.037-.015-.015-.044q.119-.259.14-.554.03-.296.03-.577v-6.518q0-.281-.03-.57-.021-.288-.14-.546l.015-.052zm1.035 8.507q.214.051.436.066.229.007.45.007.584 0 1.035-.17.459-.177.762-.503.303-.332.458-.79.162-.466.162-1.042 0-.577-.184-1.028-.185-.458-.518-.776-.332-.318-.805-.48-.466-.17-1.028-.17-.2 0-.391.044-.193.037-.377.111zm0-5.285q.192.037.377.052.184.007.377.007.376 0 .746-.118.37-.119.658-.34.295-.23.473-.555.185-.325.185-.739 0-.34-.156-.598-.155-.266-.399-.444-.244-.177-.554-.266-.303-.096-.613-.096-.281 0-.555.052-.273.051-.54.133zm6.363 5.048q0 .31.14.57v.043q-.006 0-.022.007-.014.007-.022.007h-1.13q-.008 0-.023-.007t-.022-.007v-.044q.17-.259.17-.569v-4.39q0-.266-.037-.532-.03-.266-.133-.51v-.015l.044-.044.983-.207.037.015q.015.14.015.28v.281q.118-.088.266-.184.148-.104.303-.185.155-.089.318-.148.162-.06.318-.06.258 0 .502.097.244.089.414.28l.015.045-.015.022-.599.362h-.059q-.088-.103-.214-.177-.118-.074-.266-.074-.148 0-.28.06-.134.051-.26.132-.118.082-.229.178-.11.096-.214.184zm4.945-4.057q0-.222-.045-.444-.044-.222-.155-.406-.104-.185-.28-.296-.178-.118-.437-.118-.103 0-.214.037-.104.03-.207.074-.104.037-.2.074-.096.03-.185.03-.066 0-.066-.067 0-.037.015-.096.022-.06.051-.119.03-.066.06-.125.03-.06.044-.096l.059-.03q.096.044.207.044.11 0 .214-.022l.215-.06q.103-.036.206-.066.111-.03.222-.03.377 0 .636.156.258.155.414.407.162.243.229.561.074.318.074.643v3.17q0 .29.044.437.052.14.14.236.097.09.23.178.133.081.31.251-.03.03-.11.118-.075.082-.17.17-.09.089-.17.156-.075.073-.104.073-.118 0-.252-.08-.125-.075-.243-.186-.119-.118-.215-.244-.088-.125-.133-.229-.421.296-.901.518-.48.221-1.013.221-.347 0-.65-.11-.303-.104-.533-.303-.229-.207-.362-.496-.133-.288-.133-.643 0-.443.148-.754.148-.317.4-.532.258-.214.598-.34.347-.125.739-.2.414-.08.783-.206.377-.133.74-.347zm.059 3.724q-.052-.258-.074-.524-.015-.266-.015-.532 0-.326.015-.636.015-.318.015-.643-.26.11-.54.192-.28.081-.554.17-.266.081-.518.192-.244.111-.436.281-.184.17-.295.429-.111.251-.111.62 0 .23.074.43.081.199.221.347.14.147.333.236.192.081.429.081.391 0 .783-.184.392-.192.673-.459zm2.224-4.545q0-.052.007-.185.015-.133.037-.273t.045-.251q.03-.111.059-.111h4.612l.03.022.006.037-3.6 5.839h1.553q1.064 0 2.047-.392l.03.022.015.03-.111.739-.037.03h-4.76l-.037-.015v-.03l3.533-5.772v-.03l-.037-.03h-1.47q-.489 0-.962.097-.473.088-.916.288zm6.881 5.447v.044q-.007 0-.022.007t-.022.007h-1.124l-.051-.03q.044-.036.08-.117.038-.09.06-.185.022-.104.03-.2.014-.096.014-.155v-4.33q0-.267-.037-.533-.03-.266-.133-.51v-.03l.037-.03.976-.206.052.015v3.68q.007.495.007.902v1.042q0 .163.036.325.037.155.097.303zm-.643-8.167q.192 0 .318.133.133.133.133.326 0 .192-.133.325-.126.133-.318.133-.185 0-.318-.133-.133-.14-.133-.325t.133-.318q.133-.14.318-.14zm3.082-.79q.015 2.099.007 4.168v4.16q0 .164.022.326.03.155.111.303v.044q-.03.015-.052.015h-1.123l-.037-.015v-.044q.089-.148.126-.303.037-.155.037-.325v-7.021q0-.266-.03-.525-.03-.266-.133-.517v-.023l.037-.044.236-.052q.14-.037.289-.066.147-.037.28-.06.14-.021.23-.021zm4.619 2.572q.68 0 1.279.258.606.259 1.057.71.458.443.717 1.05.266.598.266 1.278t-.266 1.286q-.26.598-.71 1.05-.45.45-1.057.709-.606.258-1.286.258t-1.286-.258q-.606-.259-1.064-.71-.45-.45-.717-1.05-.259-.598-.259-1.285 0-.688.26-1.286.265-.599.716-1.042.458-.451 1.064-.71.606-.258 1.286-.258zm0 .428q-.547 0-.975.266-.429.266-.725.68-.288.414-.443.924-.148.51-.148.998t.148.998q.155.51.443.93.289.415.717.68.429.26.983.26.547 0 .976-.267.428-.266.717-.68.295-.413.45-.923.156-.51.156-.998t-.155-.998q-.156-.51-.451-.924-.289-.414-.717-.68-.429-.266-.976-.266z" fill="#4f7942"/><path d="m35.078 163.206q0-.348-.155-.592-.155-.25-.406-.406-.252-.163-.562-.237-.303-.073-.599-.073-.229 0-.51.066-.273.06-.54.17-.265.11-.502.266-.229.155-.377.34l-.066-.074.17-.872.015-.044q.007 0 .044-.007.28-.045.554-.133.281-.09.555-.17.273-.09.554-.148.28-.067.569-.067.414 0 .835.126.429.118.769.362.347.237.561.599.215.355.215.82 0 .274-.074.532-.067.259-.185.503-.118.236-.273.458-.156.222-.318.429l-3.37 4.139h2.926q.318 0 .621-.06.31-.066.614-.17l.074.015v.06q0 .051-.074.25-.067.193-.156.415-.088.214-.177.384t-.118.17h-4.863l-.06-.03v-.074l3.385-4.796q.178-.252.34-.495.17-.252.296-.51.133-.26.207-.54.081-.28.081-.606zm6.519-1.981q.939 0 1.722.384.783.385 1.353 1.028.569.635.886 1.47.318.828.318 1.73 0 .901-.318 1.737-.317.827-.886 1.47-.57.636-1.353 1.02-.783.377-1.722.377-.628 0-1.19-.17-.554-.177-1.027-.488-.473-.317-.858-.746-.376-.429-.643-.939-.266-.517-.413-1.086-.14-.577-.14-1.175 0-.599.14-1.168.147-.576.413-1.086.267-.518.643-.946.385-.436.858-.747.473-.318 1.027-.488.562-.177 1.19-.177zm-.067.4q-.524 0-.96.191-.436.192-.791.518-.347.325-.614.753-.258.43-.436.902-.177.473-.266.968-.088.488-.088.939 0 .45.088.939.089.48.266.953.178.473.444.902.266.42.613.746.355.318.791.51.436.185.953.185.525 0 .969-.185.443-.192.79-.51.355-.318.621-.739t.444-.894q.177-.473.266-.961.089-.495.089-.946 0-.458-.09-.946-.088-.495-.265-.968-.17-.48-.436-.902-.266-.429-.621-.754-.347-.325-.79-.51-.444-.192-.977-.192zm8.256 8.661v.03q-.044.022-.185.037-.133.014-.288.014-.155.007-.303.007h-.207q-.096 0-.207-.007-.11 0-.192-.044v-.03q.118-.184.17-.399.052-.214.052-.428l-.037-7.007q-.037.03-.14.104l-.237.17q-.133.096-.281.207l-.274.192q-.125.089-.214.148t-.103.059q-.023 0-.067-.045-.037-.051-.081-.118-.037-.066-.074-.125-.03-.067-.037-.09l.022-.036q.118-.089.31-.23l.43-.302.48-.333q.25-.17.48-.318.23-.148.414-.258.192-.111.31-.156l.037.06.037 8.078q0 .214.037.42.044.208.148.4zm4.25-9.016q.45 0 .872.155.428.155.761.436.333.28.532.68.207.391.207.864 0 .34-.11.643-.112.303-.304.555-.192.25-.458.443-.259.192-.57.31.43.126.8.37.369.236.642.569.274.333.429.74.162.406.162.864 0 .591-.258 1.079-.252.48-.673.835-.414.347-.946.54-.532.192-1.086.192-.555 0-1.094-.192-.532-.193-.954-.54-.42-.355-.687-.835-.259-.488-.259-1.08 0-.457.156-.864.162-.406.436-.739.28-.333.65-.57.377-.243.806-.369-.303-.118-.57-.31-.266-.2-.465-.45-.2-.252-.318-.555-.11-.303-.11-.636 0-.48.206-.872.207-.392.547-.672.34-.281.769-.436.436-.156.887-.156zm-.03 8.898q.45 0 .835-.185.392-.192.673-.503.28-.317.436-.724.162-.406.162-.842 0-.444-.155-.858t-.436-.724q-.273-.318-.665-.503-.384-.192-.85-.192-.466 0-.85.192-.384.185-.658.503-.266.318-.413.732-.148.406-.148.85 0 .436.148.842.155.4.428.717.281.318.658.51.377.185.835.185zm.03-8.507q-.34 0-.606.163-.266.162-.451.42-.185.252-.281.57-.096.31-.096.613t.096.629q.096.317.273.583.185.26.451.43.266.162.614.162.34 0 .613-.163.274-.17.458-.429.185-.266.281-.583.104-.318.104-.629 0-.303-.104-.613-.096-.318-.288-.57-.185-.258-.458-.42-.266-.163-.606-.163zm3.762 5.218h-.045l-.015-.044.133-.599.045-.022h2.121q.17 0 .34-.037t.333-.096l.044.015v.022l.015.022-.133.576-.045.037h-2.113q-.17 0-.348.03-.17.022-.332.096zm8.012-5.654q.938 0 1.721.384.784.385 1.353 1.028.569.635.887 1.47.317.828.317 1.73 0 .901-.317 1.737-.318.827-.887 1.47-.57.636-1.353 1.02-.783.377-1.722.377-.628 0-1.19-.17-.554-.177-1.027-.488-.473-.317-.857-.746-.377-.429-.643-.939-.266-.517-.414-1.086-.14-.577-.14-1.175 0-.599.14-1.168.148-.576.414-1.086.266-.518.643-.946.384-.436.857-.747.473-.318 1.027-.488.562-.177 1.19-.177zm-.067.4q-.525 0-.961.191-.436.192-.791.518-.347.325-.613.753-.26.43-.436.902-.178.473-.267.968-.088.488-.088.939 0 .45.088.939.09.48.267.953.177.473.443.902.266.42.613.746.355.318.791.51.436.185.954.185.524 0 .968-.185.443-.192.79-.51.355-.318.621-.739.267-.421.444-.894.177-.473.266-.961.089-.495.089-.946 0-.458-.089-.946-.089-.495-.266-.968-.17-.48-.436-.902-.266-.429-.621-.754-.347-.325-.79-.51-.444-.192-.976-.192zm9.563 1.78q0-.34-.081-.643-.081-.31-.259-.54-.17-.228-.436-.361-.266-.133-.643-.133-.347 0-.628.096-.273.088-.517.236t-.48.325q-.237.178-.51.34l-.038-.007-.03-.051.17-.754q.008-.037.016-.037.014 0 .044-.015.273-.096.547-.207.273-.118.547-.207.273-.096.554-.155.288-.067.584-.067.443 0 .85.17.414.17.724.466.318.296.51.695.192.399.192.85 0 .34-.11.643-.111.303-.304.554-.192.251-.458.443-.259.193-.569.31.429.127.798.37.37.237.643.57.274.332.429.739.163.406.163.864 0 .577-.252 1.065-.244.487-.65.842-.407.355-.931.547-.518.2-1.072.2-.28 0-.562-.052-.273-.044-.554-.111-.273-.066-.547-.14-.273-.074-.547-.126-.03-.007-.044-.007-.008-.007-.015-.044l-.23-1.294.03-.052.045-.014.03.03.48.413q.266.222.547.421.288.193.59.326.304.125.614.125.436 0 .791-.177.362-.177.614-.473.25-.296.384-.68.14-.384.14-.798 0-.348-.125-.717-.119-.37-.34-.673-.222-.303-.54-.495-.318-.2-.702-.2-.296 0-.576.126-.274.118-.473.333l-.03-.015-.015-.03q-.015-.155-.037-.303-.014-.155-.022-.31l.03-.03q.443-.133.85-.288.406-.155.717-.392.317-.244.502-.598.192-.362.192-.902zm2.506 3.474h-.045l-.014-.044.133-.599.044-.022h2.121q.17 0 .34-.037t.333-.096l.044.015v.022l.015.022-.133.576-.045.037h-2.113q-.17 0-.348.03-.17.022-.332.096zm8.011-5.654q.939 0 1.722.384.784.385 1.353 1.028.569.635.887 1.47.318.828.318 1.73 0 .901-.318 1.737-.318.827-.887 1.47-.57.636-1.353 1.02-.783.377-1.722.377-.628 0-1.19-.17-.554-.177-1.027-.488-.473-.317-.857-.746-.377-.429-.643-.939-.266-.517-.414-1.086-.14-.577-.14-1.175 0-.599.14-1.168.148-.576.414-1.086.266-.518.643-.946.384-.436.857-.747.473-.318 1.027-.488.562-.177 1.19-.177zm-.066.4q-.525 0-.961.191-.436.192-.79.518-.348.325-.614.753-.259.43-.436.902-.178.473-.266.968-.089.488-.089.939 0 .45.089.939.088.48.266.953.177.473.443.902.266.42.614.746.354.318.79.51.436.185.954.185.525 0 .968-.185.443-.192.79-.51.356-.318.622-.739t.443-.894q.177-.473.266-.961.089-.495.089-.946 0-.458-.089-.946-.089-.495-.266-.968-.17-.48-.436-.902-.266-.429-.62-.754-.348-.325-.792-.51-.443-.192-.975-.192zm9.483.62-4.051.081h-.022q-.008-.007-.022-.007v-.052l.554-.872.03-.022h4.42l.051.022v.037l-2.698 5.292 1.42-.059.044.044v.03q-.045.089-.096.214-.052.126-.111.252-.052.125-.118.236-.06.111-.119.185l-1.404.044q-.2.488-.37.998-.162.51-.25 1.035-.016.081-.03.2-.015.11-.037.236-.015.118-.045.229-.022.11-.051.177-.34.119-.673.23-.333.11-.665.25h-.037l-.015-.058 1.633-3.282-.665.03-.044-.03v-.044q.103-.215.2-.444.103-.229.25-.414l.688-.014z" fill="#6c4279"/></g></svg>